<?xml version="1.0" encoding="utf-8"?>
<svg version="1.1" id="Layer_1" x="0px" y="0px" viewBox="0 0 1080 1080" style="enable-background:new 0 0 1080 1080;" xmlns="http://www.w3.org/2000/svg">
  <g transform="matrix(1.013379, 0, 0, 1.011149, -0.081613, -0.086964)">
    <path d="M533.7,7.8C242.7,7.8,6.1,244.5,6.1,535.4S242.7,1063,533.7,1063s527.6-236.7,527.6-527.6S824.6,7.8,533.7,7.8z M533.7,1027.6c-271.4,0-492.2-220.8-492.2-492.2C41.5,264,262.3,43.2,533.7,43.2c271.4,0,492.2,220.8,492.2,492.2 C1025.9,806.8,805.1,1027.6,533.7,1027.6z" style="fill: rgb(255, 255, 255);"/>
    <path d="M229.1,771.6c1.7,0.1,3,0.3,3.8,0.6c1.5,0.6,2.3,1.7,2.3,3.4c0,0.5-0.1,1.1-0.2,1.8c-0.2,1.3-0.7,2.8-1.3,4.5l-10.9,29.6 l-12.6-32.7c-0.5-1.2-0.7-2-0.9-2.4c-0.1-0.4-0.2-0.8-0.2-1.3c0-1.5,0.7-2.5,2-3c0.8-0.3,2.3-0.4,4.5-0.5V770h-23.3v1.6 c1.8,0,3.2,0.2,4.1,0.6c1.5,0.7,2.7,1.9,3.4,3.9l4.1,10.7l-9.2,24.4l-12.6-32.8c-0.3-0.9-0.5-1.5-0.7-2.1c-0.2-0.5-0.2-1.1-0.2-1.7 c0-1.3,0.7-2.2,2-2.6c0.7-0.3,2-0.4,3.7-0.5V770h-21.4v1.6c2.6,0.1,4.4,1.2,5.6,3.1c1.2,1.9,3.3,7.1,6.4,15.5l7.4,20.4l6.5,18h1.3 l13.4-36.8l10.1,26.8l3.8,10h1.3l5.5-15.7l3.5-10l9.1-26c0.7-2,1.8-3.4,3.3-4.3c0.8-0.5,2-0.8,3.6-1.1V770h-17.3V771.6z" style="fill: rgb(255, 255, 255);"/>
    <path d="M284.5,771.6c3.2,0.2,5.3,0.8,6.3,1.7c0.9,0.9,1.4,3,1.4,6.1v17h-26.5v-17c0-3.1,0.5-5.1,1.4-6.1c1-0.9,3-1.5,6.2-1.7V770 h-24.2v1.6c3.2,0.2,5.3,0.8,6.2,1.7c0.9,0.9,1.4,3,1.4,6.1v37.7c0,3.8-0.4,6.1-1.3,7c-0.9,0.9-3,1.5-6.4,1.9v1.6h24.2V826 c-3.2-0.3-5.3-0.8-6.2-1.7c-1-0.9-1.4-2.9-1.4-6.1v-18h26.5v16.9c0,3.8-0.4,6.1-1.3,7c-0.8,0.9-3,1.5-6.4,1.9v1.6h24.2V826 c-3.2-0.3-5.3-0.9-6.2-1.8c-1-0.9-1.4-2.9-1.4-6.1v-38.8c0-3.1,0.5-5.1,1.4-6.1c0.9-0.9,3-1.5,6.2-1.7V770h-24.2V771.6z" style="fill: rgb(255, 255, 255);"/>
    <path d="M312.6,771.6c3.5,0.2,5.8,0.7,6.9,1.6c1,0.9,1.6,3,1.6,6.2v38.8c0,3.4-0.5,5.4-1.6,6.2c-1.1,0.8-3.3,1.3-6.9,1.6v1.6h25.8 V826c-3.5-0.3-5.8-0.8-6.9-1.6c-1.1-0.8-1.6-2.9-1.6-6.2v-38.8c0-3.2,0.5-5.3,1.6-6.2c1-0.9,3.3-1.5,6.9-1.6V770h-25.8V771.6z" style="fill: rgb(255, 255, 255);"/>
    <path d="M342.3,770l-0.5,14.8h2.1c0.9-4.7,2.2-7.7,3.9-9.1c1.7-1.4,5-2.1,9.9-2.1h4.9v43.6c0,3.8-0.5,6.1-1.4,7 c-0.9,0.9-3.2,1.5-6.9,1.8v1.6h25.4V826c-3.5-0.3-5.8-0.8-6.9-1.6c-1.1-0.8-1.6-2.9-1.6-6.2v-44.6h4.9c5,0,8.4,0.7,9.9,2.1 c1.6,1.4,2.9,4.4,3.9,9.1h2.1l-0.5-14.8H342.3z" style="fill: rgb(255, 255, 255);"/>
    <path d="M436.3,822.3c-2.8,1.3-7.2,1.9-13.1,1.9c-5.5,0-8.7-0.2-9.8-0.5c-1.1-0.3-1.6-1.3-1.6-3.1v-21.6h13.4c3.7,0,6,0.5,7.1,1.6 c1,1.1,1.9,3.3,2.5,6.7h2v-20.1h-2c-0.6,3.4-1.4,5.6-2.5,6.7c-1,1.1-3.4,1.7-7.1,1.7h-13.4v-19.4c0-1.1,0.1-1.9,0.4-2.3 c0.3-0.4,1.1-0.6,2.4-0.6h11.9c5.1,0,8.4,0.6,9.9,1.7c1.5,1.1,2.6,3.6,3.3,7.5h2.2l-0.3-12.5h-46.3v1.6c3.2,0.2,5.3,0.8,6.3,1.8 c0.9,1,1.4,3,1.4,6.1v38.8c0,3.3-0.5,5.3-1.4,6.1c-1,0.8-3,1.4-6.2,1.7v1.6h47.1l4-14.7h-2.4C441.7,817.9,439.1,821,436.3,822.3z" style="fill: rgb(255, 255, 255);"/>
    <path d="M490,822.3c-2.7,1.3-8,1.9-15.7,1.9c-2,0-3.3,0-4.1,0c-0.7,0-1.4-0.1-2.1-0.2c-1.1-0.1-1.8-0.5-2.2-1 c-0.3-0.6-0.5-1.3-0.5-2.3v-41.9c0-2.9,0.5-4.8,1.6-5.7c1.1-0.9,3.2-1.4,6.4-1.6V770h-24.6v1.6c3.2,0.2,5.3,0.8,6.3,1.8 c0.9,1,1.4,3,1.4,6.1v38.8c0,3.3-0.5,5.3-1.4,6.1c-1,0.8-3,1.4-6.2,1.7v1.6h46.9l4.3-15.1h-2.2C495.3,817.8,492.7,821,490,822.3z" style="fill: rgb(255, 255, 255);"/>
    <path d="M555.3,818.4L533.6,769h-1.7l-18.2,42.8c-2.7,6.4-4.6,10.3-5.8,11.8s-2.8,2.3-5,2.5v1.6h17.3V826c-2-0.2-3.4-0.4-4.2-0.8 c-1.2-0.6-1.8-1.6-1.8-3.1c0-0.7,0.2-1.7,0.7-3c0.4-1.3,1.8-4.7,4.1-10.4h23l3.5,8.4c0.5,1.2,0.9,2.3,1.2,3.4 c0.3,1.1,0.4,1.8,0.4,2.2c0,1.3-0.4,2.1-1.1,2.4c-0.7,0.3-2.4,0.6-4.9,0.8v1.6h22.2V826c-2-0.3-3.5-0.8-4.4-1.6 C557.9,823.7,556.8,821.6,555.3,818.4z M520.4,805.3l10-24l10,24H520.4z" style="fill: rgb(255, 255, 255);"/>
    <path d="M610,773.9c-5.5-2.6-12.2-3.9-20.1-3.9h-23.5v1.6c3.2,0.2,5.3,0.8,6.3,1.7c0.9,0.9,1.4,3,1.4,6.1v38.8 c0,3.3-0.5,5.3-1.4,6.1c-1,0.8-3,1.4-6.2,1.7v1.6h24.2c6.5,0,12-0.8,16.4-2.5c2.4-0.9,4.8-2.2,7.1-3.9c3.6-2.7,6.2-6,8-9.9 c1.8-3.9,2.7-8,2.7-12.4C624.8,786.9,619.8,778.6,610,773.9z M605.1,820.4c-4.4,2.7-10,4-16.8,4c-2.2,0-3.6-0.2-4.3-0.7 c-0.7-0.5-1-1.4-1-2.8v-44.3c0-1.4,0.3-2.4,1-2.8c0.7-0.4,2-0.6,4-0.6c7.9,0,14.2,1.9,18.9,5.8c5.6,4.5,8.3,11.2,8.3,20.2 C615.2,809.1,611.8,816.2,605.1,820.4z" style="fill: rgb(255, 255, 255);"/>
    <path d="M629.8,771.6c3.5,0.2,5.8,0.7,6.9,1.6c1,0.9,1.6,3,1.6,6.2v38.8c0,3.4-0.5,5.4-1.6,6.2c-1.1,0.8-3.3,1.3-6.9,1.6v1.6h25.8 V826c-3.5-0.3-5.8-0.8-6.9-1.6c-1.1-0.8-1.6-2.9-1.6-6.2v-38.8c0-3.2,0.5-5.3,1.6-6.2c1-0.9,3.3-1.5,6.9-1.6V770h-25.8V771.6z" style="fill: rgb(255, 255, 255);"/>
    <path d="M699.9,822.3c-2.8,1.3-7.2,1.9-13.1,1.9c-5.5,0-8.7-0.2-9.8-0.5c-1.1-0.3-1.6-1.3-1.6-3.1v-21.6h13.4c3.7,0,6,0.5,7.1,1.6 c1,1.1,1.9,3.3,2.5,6.7h2v-20.1h-2c-0.6,3.4-1.4,5.6-2.5,6.7c-1,1.1-3.4,1.7-7.1,1.7h-13.4v-19.4c0-1.1,0.1-1.9,0.4-2.3 c0.3-0.4,1.1-0.6,2.4-0.6H690c5.1,0,8.4,0.6,9.9,1.7c1.5,1.1,2.6,3.6,3.3,7.5h2.2l-0.3-12.5h-46.3v1.6c3.2,0.2,5.3,0.8,6.3,1.8 c0.9,1,1.4,3,1.4,6.1v38.8c0,3.3-0.5,5.3-1.4,6.1c-1,0.8-3,1.4-6.2,1.7v1.6h47.1l4-14.7h-2.4C705.2,817.9,702.7,821,699.9,822.3z" style="fill: rgb(255, 255, 255);"/>
    <path d="M741.2,795.8l-7.7-4.7c-2.9-1.8-5-3.4-6.3-5.1c-1.4-1.6-2-3.5-2-5.7c0-2.5,0.9-4.4,2.7-5.9c1.8-1.4,3.9-2.1,6.2-2.1 c3.1,0,6.2,1.1,9.3,3.3c3.1,2.2,5.4,6.1,6.8,11.7h2.1l-1.9-18.6h-1.8c-0.2,0.9-0.5,1.7-1,2.2c-0.4,0.5-1.2,0.8-2.2,0.8 c-0.4,0-2-0.5-4.8-1.5c-2.8-1-5.2-1.5-7.2-1.5c-4.8,0-8.7,1.5-11.6,4.4c-2.9,2.9-4.4,6.6-4.4,11c0,3.3,1.2,6.4,3.7,9.1 c1.3,1.4,3.1,2.9,5.4,4.3l7.4,4.6c4.3,2.7,7.1,4.7,8.4,6c2,2.1,3.1,4.6,3.1,7.4c0,3.1-1,5.6-3,7.4c-2,1.8-4.4,2.6-7.2,2.6 c-5.1,0-9.4-2-12.9-6.1c-2-2.3-3.7-5.4-5.2-9.4h-2l2.6,18.6h1.9c0.1-0.7,0.3-1.4,0.7-2c0.4-0.6,1-0.9,2.1-0.9c0.4,0,2.1,0.5,5,1.5 c2.9,1,5.7,1.5,8.4,1.5c5.4,0,9.8-1.5,13.2-4.6c3.4-3.1,5.2-6.9,5.2-11.4c0-3.4-1-6.4-2.9-8.9C749.4,801.4,746,798.7,741.2,795.8z" style="fill: rgb(255, 255, 255);"/>
    <path d="M832,821.9l-18-22.1c4.9-0.7,8.7-2.3,11.5-4.6c2.8-2.3,4.2-5.6,4.2-10c0-6.5-3.2-10.9-9.5-13.3c-3.3-1.3-7.5-1.9-12.6-1.9 h-24.1v1.6c3.1,0.3,5.2,0.9,6.1,1.8c0.9,1,1.4,3,1.4,6v37.7c0,3.6-0.4,5.9-1.2,6.9c-0.8,1-2.9,1.6-6.3,1.9v1.6h24.2V826 c-3.3-0.3-5.4-0.9-6.4-1.7c-1-0.9-1.5-2.9-1.5-6.1V801l3.8-0.2l21.8,26.8h14V826c-1.7-0.2-3.1-0.6-4.3-1.2 C834.2,824.2,833.1,823.2,832,821.9z M799.9,797.8v-21.4c0-1.3,0.3-2.1,0.8-2.5c0.6-0.4,2.1-0.5,4.5-0.5c3.7,0,6.6,0.5,8.8,1.5 c4.1,1.8,6.2,5.3,6.2,10.3c0,5.2-2.3,8.8-6.9,10.7C810.7,796.9,806.2,797.5,799.9,797.8z" style="fill: rgb(255, 255, 255);"/>
    <path d="M886.1,773.9c-5.5-2.6-12.2-3.9-20.1-3.9h-23.5v1.6c3.2,0.2,5.3,0.8,6.3,1.7c0.9,0.9,1.4,3,1.4,6.1v38.8 c0,3.3-0.5,5.3-1.4,6.1c-1,0.8-3,1.4-6.2,1.7v1.6h24.2c6.5,0,12-0.8,16.4-2.5c2.4-0.9,4.8-2.2,7.1-3.9c3.6-2.7,6.2-6,8-9.9 c1.8-3.9,2.7-8,2.7-12.4C900.9,786.9,896,778.6,886.1,773.9z M881.2,820.4c-4.4,2.7-10,4-16.8,4c-2.2,0-3.6-0.2-4.3-0.7 c-0.7-0.5-1-1.4-1-2.8v-44.3c0-1.4,0.3-2.4,1-2.8c0.7-0.4,2-0.6,4-0.6c7.9,0,14.2,1.9,18.9,5.8c5.6,4.5,8.3,11.2,8.3,20.2 C891.4,809.1,888,816.2,881.2,820.4z" style="fill: rgb(255, 255, 255);"/>
    <path d="M354.5,581.1c0,0.5,0.1,1.1,0.1,1.6c0,0.1,0,0.2,0,0.4c10.2,87.5,110.5,81.6,110.5,81.6c155.3-2.7,148.1-108.2,148.1-108.2 c0-78.1-99.1-93.3-99.1-93.3c84.9-21.8,76.7-80.3,76.7-80.3c-2.3-86.7-128.4-79.4-128.4-79.4c-52.4,3.2-70.8,37.6-75.9,56.7 c-2.1,5.9-2.9,12.4-1.5,19.3c3.1,15.6,16.2,27.7,32.1,29.1c23.2,2.2,42.4-17.5,39.5-40.7c-2-16.3-15.2-29.4-31.5-31.4 c-4.1-0.5-8.1-0.3-11.9,0.5l0,0c15.7-29.7,48.7-27.5,48.7-27.5c16.8,0,41.4,4.1,44,80.8c2.5,74.2-33.9,72.6-33.9,72.6H439l0.6,6.3 h39.7c47.1,7.5,41.8,95.4,41.8,95.4c1,98-57.7,97.6-57.7,97.6c-72.5-0.5-79.1-45.5-79.1-45.5l0,0c5.4,1.8,11.3,2.4,17.5,1.6 c19-2.5,33.7-18.9,34.2-38c0.6-22.3-17.3-40.5-39.4-40.5c-21.2,0-41.1,16.7-42.1,37.7l-0.1-0.1c0,0.4,0,0.8,0,1.3 c0,0.2,0,0.4,0,0.7C354.4,579.7,354.5,580.4,354.5,581.1z" style="fill: rgb(255, 255, 255);"/>
    <path d="M864.8,545c0-111.6-128.7-110.4-128.7-110.4c-50-3.3-80.7,25.6-93.4,40.4l19.4-98c172.7,45.6,179.5-70.3,179.5-70.3 c-109.6,15.7-171.6,0-171.6,0l-2.3,14l-34.1,172l3.1,1.1c2-9.1,28.2-46.4,71.4-49.2c37.6-2.4,58.5,37.1,58.5,105.2 c0,68.1-14.1,114.2-59.4,115.2c0,0-59.5,3-76.4-48.3l0,0c5.4,2.8,11.6,4.4,18.2,4.4c21.8,0,39.5-17.7,39.5-39.5 s-17.7-39.5-39.5-39.5s-39.5,17.7-39.5,39.5c0,2.5,5.4,89.3,103.3,86C867.2,662.6,864.8,545,864.8,545z" style="fill: rgb(255, 255, 255);"/>
    <path d="M552.8,709.7c0-5.4-3.9-9-10-9c-6.3,0-10.2,3.8-10.2,9.9v0.3h2.9v-0.1c0-4.7,2.8-7.5,7-7.5c4.3,0,7.1,2.7,7.1,6.5 c0,4.7-4.3,8.8-10.7,15.8l-6.9,7.6h20.7v-2.5H538l7.1-7.6C549.6,718.2,552.8,715,552.8,709.7z" style="fill: rgb(255, 255, 255);"/>
    <path d="M576.9,717.5c0-10.7-4.2-16.7-10.7-16.7c-6.6,0-10.8,6.1-10.8,16.7c0,10.6,4.3,16.7,10.7,16.7 C572.7,734.2,576.9,728.2,576.9,717.5z M566.2,731.6c-4.9,0-7.9-5.3-7.9-14c0-8.8,3-14.2,7.8-14.2c5.1,0,7.9,4.9,7.9,14.1 C574,726.7,571.3,731.6,566.2,731.6z" style="fill: rgb(255, 255, 255);"/>
    <polygon points="586.2,733.3 586.2,701.4 579,701.4 577.6,704 583.4,704 583.4,733.3 &#9;" style="fill: rgb(255, 255, 255);"/>
    <path d="M608.3,733.3v-8.2h3.3v-2.5h-3.3v-22.3l-17.5,24.9h14.5v8.2H608.3z M595.3,722.6l10.2-14.5l0,14.5H595.3z" style="fill: rgb(255, 255, 255);"/>
    <path d="M482.6,721c0-7-4.2-11.3-10.2-11.3c-6.4,0-10.9,4.8-10.9,12.3c0,7,4.4,11.9,11,11.9c4.8,0,8-2.1,10.3-6.6l-2.8-1.6 c-1.7,3.6-4.1,5.4-7.4,5.4c-4.4,0-7.6-3.5-7.7-9.3h17.8V721z M465.1,719.1c0.4-3.9,3.3-6.5,6.9-6.5c4.1,0,6.7,2.3,7,6.5H465.1z" style="fill: rgb(255, 255, 255);"/>
    <path d="M494.8,720.1c-3.5-1.2-5.3-2.1-5.3-4.3c0-1.9,1.6-3.3,3.7-3.3c2.4,0,4.1,1.1,4.8,3.3l2.8-1.6c-1.2-2.9-3.8-4.6-7.4-4.6 c-4.3,0-7.2,2.7-7.2,6.5c0,2.8,1.8,4.7,5.4,6.2c3.6,1.5,6.3,1.9,6.3,5c0,2.2-1.6,3.7-4.3,3.7c-2.7,0-4.5-1.2-5.5-3.8l-2.9,1.7 c1.1,3.1,4,5,7.9,5c5.1,0,8.1-2.8,8.1-6.8C501.1,722.9,498.9,721.4,494.8,720.1z" style="fill: rgb(255, 255, 255);"/>
    <polygon points="510.6,732.9 510.6,713.1 515.1,713.1 515.1,710.5 510.6,710.5 510.6,701.2 507.5,701.2 507.5,710.5 503.4,710.5 &#10;&#9;&#9;503.4,713.1 507.5,713.1 507.5,732.9 &#9;" style="fill: rgb(255, 255, 255);"/>
    <path d="M519.6,730.7c0,1.4,1.1,2.6,2.6,2.6c1.4,0,2.6-1.1,2.6-2.6s-1.1-2.6-2.6-2.6C520.7,728.1,519.6,729.3,519.6,730.7z" style="fill: rgb(255, 255, 255);"/>
    <path d="M395.7,664.2v-4c0-0.5-0.5-0.9-1-0.9c-49.3,1.2-48.9-33.2-48.9-33.2V298.8h-5.4c-53.6,45.3-119.8,56.3-119.8,56.3v6.8 c36.1,0,33.6,19.1,33.6,19.1s-1.2,209.2,0,246.9c1,32.6-40.2,32.2-47.5,31.8c-0.6,0-1.1,0.5-1.1,1.1v3.9h189.7 C395.5,664.6,395.7,664.4,395.7,664.2z" style="fill: rgb(255, 255, 255);"/>
    <path d="M523.3,229.4c0-1.5,1.2-2.7,2.7-2.7h17.2c1.2,0,2.2,1,2.2,2.2v19.5h18.4V196c0-9.5-15-8.4-15-8.4H520c0,0-15-1.2-15,8.4 v52.4h18.4V229.4z M523.3,198.5c0-1.4,1.1-2.4,2.4-2.4H543c1.4,0,2.5,1.1,2.5,2.5v17c0,1.4-1.1,2.5-2.5,2.5h-16.9 c-1.5,0-2.8-1.2-2.8-2.8V198.5z" style="fill: rgb(255, 255, 255);"/>
    <path d="M597.2,224.3h9.2l13.3,24.2h21.1l-16-24.2c10.7,0,10.9-8.8,10.9-8.8v-18.7c-0.1-10.2-18.4-9.1-18.4-9.1h-20.1h-18.4v8.4 v19.2v9.1v24.2h18.4V224.3z M597.2,198.4c0-1.3,1-2.3,2.3-2.3h13.8c1.6-0.1,2.6,0.3,3.2,0.8c0.5,0.4,0.7,1.1,0.7,1.8v14.4 c0,1.2-1,2.1-2.1,2.1h-15.9c-1.1,0-2-0.9-2-2V198.4z" style="fill: rgb(255, 255, 255);"/>
    <path d="M452.9,248.5h19.1h1.2c0,0,20.3,0.9,19.9-9.7v-14.2c0-2-1.1-3.8-2.8-4.8c-2.7-1.5-7.1-3.3-12.8-3.1c13.1-0.4,12.9-5,12.9-5 v-14.8c0-8.8-13.2-9.3-15.7-9.3h-1.4h-1.2h-19.1h-18.4v8.4v52.4h0.2H452.9z M452.9,198.7c0-1.5,1.2-2.7,2.7-2.7h13.8 c1.4,0,2.5,1.1,2.5,2.5v12c0,1.2-0.9,2.1-2.1,2.1h-14.5c-1.4,0-2.5-1.1-2.5-2.5V198.7z M452.9,223.3c0-1.4,1.1-2.5,2.5-2.5h13.7 c1.6,0,2.9,1.3,2.9,2.9v14.5c0,1-0.8,1.7-1.7,1.7h-14.8c-1.4,0-2.5-1.1-2.5-2.5V223.3z" style="fill: rgb(255, 255, 255);"/>
  </g>
</svg>